# xmcd
#
# Track frame offsets: 
#        150
#        10843
#        16592
#        26948
#        37858
#        47168
#        58265
#        70491
#        82226
#        91392
#        104618
#        116952
#        130256
#        142767
#        154847
#        167390
#
# Disc length: 2377 seconds
#
# Revision: 0
# Processed by: cddbd v1.5.2PL0 Copyright (c) Steve Scherf et al.
# Submitted via: ExactAudioCopy v0.99pb5
#
DISCID=d6094710
DTITLE=Various Artist - Country and Western Hits  cd4
DYEAR=2000
DGENRE=country
TTITLE0=Marty Robbins  - Time goes by
TTITLE1=Gene Autry - Home on the range
TTITLE2=Hank Snow - The gold rush is over
TTITLE3=Dob Gibson - Ice cold heart
TTITLE4=Chat Atkins - Sweet bunch of daisies
TTITLE5=Johnny Horton - Rhythm in my babys walk
TTITLE6=Marla Travis - Missouri
TTITLE7=Little Jimmy Dickens - Wedding bell walz
TTITLE8=Hank Thompson - Soft Lipps
TTITLE9=Red Roles - Smoke on the water
TTITLE10=Tex Williams - Cool water
TTITLE11=Ernest Tubb - I'am the one who loves you
TTITLE12=Roy Acuff - Polk country breakdown
TTITLE13=Ray Price - The last lette 
TTITLE14=Hank Williams - I'm so lonesome i could cry
TTITLE15=Lefty Fritzell - I'm an old old man
EXTD=
EXTT0=
EXTT1=
EXTT2=
EXTT3=
EXTT4=
EXTT5=
EXTT6=
EXTT7=
EXTT8=
EXTT9=
EXTT10=
EXTT11=
EXTT12=
EXTT13=
EXTT14=
EXTT15=
PLAYORDER=
